<?xml version="1.0" encoding="iso-8859-1"?>
<!-- Generator: Adobe Illustrator 15.0.2, SVG Export Plug-In . SVG Version: 6.00 Build 0)  -->
<!DOCTYPE svg PUBLIC "-//W3C//DTD SVG 1.0//EN" "http://www.w3.org/TR/2001/REC-SVG-20010904/DTD/svg10.dtd">
<svg version="1.0" id="Layer_1" xmlns="http://www.w3.org/2000/svg" xmlns:xlink="http://www.w3.org/1999/xlink" x="0px" y="0px"
	 width="1024px" height="1024px" viewBox="0 0 1024 1024" enable-background="new 0 0 1024 1024" xml:space="preserve">
<path fill="#d9d9d9" d="M832.025,810.139H699.509V602.55c0-49.444-1.023-113.162-68.959-113.162c-68.999,0-79.525,53.939-79.525,109.612v211.139
	H418.428V383.366h127.214v58.314h1.813c17.742-33.554,61.015-68.921,125.48-68.921c134.253,0,159.09,88.357,159.09,203.292V810.139z
	 M345.763,248.163c0,42.426-34.441,76.847-76.885,76.847c-42.464,0-76.866-34.421-76.866-76.847
	c0-42.502,34.402-76.964,76.866-76.964C311.321,171.199,345.763,205.661,345.763,248.163 M202.542,383.366h132.673v426.772H202.542
	V383.366z M1024,511.98C1024,229.238,794.768,0,512.011,0C229.234,0,0,229.238,0,511.98C0,794.803,229.234,1024,512.011,1024
	C794.768,1024,1024,794.803,1024,511.98"/>
</svg>
